# xmcd
#
# Track frame offsets: 
#        150
#        18800
#        37341
#        48646
#        59164
#        74903
#        84929
#        97065
#        109485
#        123551
#        136277
#        144912
#        155892
#        163373
#        174075
#        198528
#        208826
#        221759
#
# Disc length: 3102 seconds
#
# Revision: 0
# Processed by: cddbd v1.5.2PL0 Copyright (c) Steve Scherf et al.
# Submitted via: ExactAudioCopy v1.0b1
#
DISCID=260c1c12
DTITLE=Albert Collins - The Complete Imperial Recordings CD1
DYEAR=1992
DGENRE=Texas Blues
TTITLE0=Do The Sissy
TTITLE1=Collins' Mix
TTITLE2=Let's Get It Together
TTITLE3=Got A Good Thing Goin'
TTITLE4=All About My Girl
TTITLE5=Stump Poker
TTITLE6=Let's Get It Together Again
TTITLE7=Ain't Got Time
TTITLE8=Turnin' On
TTITLE9=Whatcha Say (I Don't Know)
TTITLE10=Pushin'
TTITLE11=Doin' My Thing
TTITLE12=Harris County Line-Up
TTITLE13=Conversation Wth Collins
TTITLE14=Jawing
TTITLE15=Grapeland Gossip
TTITLE16=Chatterbox
TTITLE17=Trash Talkin'
EXTD=
EXTT0=
EXTT1=
EXTT2=
EXTT3=
EXTT4=
EXTT5=
EXTT6=
EXTT7=
EXTT8=
EXTT9=
EXTT10=
EXTT11=
EXTT12=
EXTT13=
EXTT14=
EXTT15=
EXTT16=
EXTT17=
PLAYORDER=
